<svg width="200" height="60" viewBox="0 0 200 60" fill="none" xmlns="http://www.w3.org/2000/svg">
  <!-- Leaf (Green) -->
  <path d="M25 10C25 10 35 15 35 30C35 40 30 45 25 45C20 40 15 30 25 10Z" fill="#2FB24A"/>

  <!-- Second Leaf (Lighter Green) -->
  <path d="M30 12C30 12 38 17 38 28C38 36 34 40 30 42C27 38 24 30 30 12Z" fill="#29A33A" opacity="0.8"/>

  <!-- Bar chart elements (Green shades) -->
  <rect x="10" y="35" width="4" height="10" rx="2" fill="#29A33A"/>
  <rect x="16" y="28" width="4" height="17" rx="2" fill="#2FB24A"/>
  <rect x="22" y="38" width="4" height="7" rx="2" fill="#29A33A"/>

  <!-- Tech pixels (Blue) -->
  <rect x="5" y="15" width="3" height="3" fill="#0F7DB6"/>
  <rect x="10" y="12" width="3" height="3" fill="#0F7DB6"/>
  <rect x="8" y="18" width="3" height="3" fill="#0F7DB6"/>

  <!-- Text: BitGrow -->
  <text x="48" y="32" font-family="Inter, sans-serif" font-size="20" font-weight="700" fill="#2B2F36">BitGrow</text>
  <text x="48" y="48" font-family="Inter, sans-serif" font-size="10" font-weight="400" fill="#2B2F36" opacity="0.7">SOLUTION</text>
</svg>
