<svg width="800" height="300" viewBox="0 0 800 300" fill="none" xmlns="http://www.w3.org/2000/svg">
  <!-- Bar Chart Elements (Green shades) -->
  <rect x="146" y="140" width="22" height="40" rx="4" fill="#6EBF3B"/>
  <rect x="178" y="110" width="22" height="70" rx="4" fill="#6EBF3B"/>
  <rect x="210" y="90" width="22" height="90" rx="4" fill="#84CC5F"/>
  <rect x="242" y="60" width="22" height="120" rx="4" fill="#84CC5F"/>

  <!-- Leaves (Green) -->
  <!-- Large leaf -->
  <path d="M 260 30 Q 280 20 300 40 Q 310 60 305 85 Q 300 100 285 110 Q 270 115 260 105 Q 250 85 255 60 Q 258 40 260 30 Z" fill="#6EBF3B"/>
  <!-- Vein in large leaf -->
  <path d="M 260 35 Q 275 60 285 100" stroke="#FFFFFF" stroke-width="2" opacity="0.3" fill="none"/>

  <!-- Smaller leaf -->
  <path d="M 275 45 Q 290 40 302 55 Q 308 70 303 85 Q 298 95 288 98 Q 278 99 272 90 Q 268 75 271 60 Q 273 50 275 45 Z" fill="#84CC5F" opacity="0.9"/>

  <!-- Tech Pixels (Blue) -->
  <rect x="145" y="70" width="16" height="16" fill="#1E7FB8" rx="2"/>
  <rect x="168" y="55" width="16" height="16" fill="#1E7FB8" rx="2"/>
  <rect x="152" y="92" width="16" height="16" fill="#2894CC" rx="2"/>

  <!-- Text: BitGrow -->
  <text x="340" y="125" font-family="'Inter', 'Segoe UI', system-ui, sans-serif" font-size="85" font-weight="700" fill="#2D3748" letter-spacing="-1">BitGrow</text>

  <!-- Text: SOLUTIONS -->
  <text x="340" y="175" font-family="'Inter', 'Segoe UI', system-ui, sans-serif" font-size="36" font-weight="500" fill="#2D3748" letter-spacing="4">SOLUTIONS</text>

  <!-- Text: SOFTWARE DEVELOPMENT -->
  <text x="340" y="210" font-family="'Inter', 'Segoe UI', system-ui, sans-serif" font-size="24" font-weight="400" fill="#2D3748" letter-spacing="8">SOFTWARE DEVELOPMENT</text>
</svg>
